# AST/ASF file generated using VICON BodyLanguage
# -----------------------------------------------
:version 1.10
:name VICON
:units
  mass 1.0
  length 0.45
  angle deg
:documentation
   .ast/.asf automatically generated from VICON data using
   VICON BodyBuilder and BodyLanguage model FoxedUp or BRILLIANT.MOD
:root
   order TX TY TZ RX RY RZ
   axis XYZ
   position 0 0 0  
   orientation 0 0 0 
:bonedata
  begin
     id 1 
     name lhipjoint
     direction 0.693937 -0.600361 0.397515 
     length 2.37164 
     axis 0 0 0  XYZ
  end
  begin
     id 2 
     name lfemur
     direction 0.34202 -0.939693 0  
     length 6.18497  
     axis 0 0 20  XYZ
    dof rx ry rz
    limits (-160.0 20.0)
           (-70.0 70.0)
           (-60.0 70.0)
  end
  begin
     id 3 
     name ltibia
     direction 0.34202 -0.939693 0   
     length 6.91601   
     axis 0 0 20   XYZ
    dof rx
    limits (-10.0 170.0)
  end
  begin
     id 4 
     name lfoot
     direction 0.0978718 -0.2689 0.958182   
     length 1.81453   
     axis -90 7.62852e-016 20   XYZ
    dof rx rz
    limits (-45.0 90.0)
           (-70.0 20.0)
  end
  begin
     id 5 
     name ltoes
     direction 1.53569e-011 -4.21951e-011 1   
     length 0.912052   
     axis -90 7.62852e-016 20   XYZ
    dof rx
    limits (-90.0 20.0)
  end
  begin
     id 6 
     name rhipjoint
     direction -0.643996 -0.637876 0.422354   
     length 2.23216  
     axis 0 0 0  XYZ 
  end
  begin
     id 7 
     name rfemur
     direction -0.34202 -0.939693 0   
     length 6.15404   
     axis 0 0 -20   XYZ
    dof rx ry rz
    limits (-160.0 20.0)
           (-70.0 70.0)
           (-70.0 60.0)
  end
  begin
     id 8 
     name rtibia
     direction -0.34202 -0.939693 0   
     length 6.86744   
     axis 0 0 -20   XYZ
    dof rx
    limits (-10.0 170.0)
 end
 begin
     id 9 
     name rfoot
     direction -0.118701 -0.326127 0.937844   
     length 1.9243  
     axis -90 -7.62852e-016 -20   XYZ
    dof rx rz
    limits (-45.0 90.0)
           (-20.0 70.0)
  end
  begin
     id 10 
     name rtoes
     direction -1.5356e-011 -4.2181e-011 1   
     length 0.958865   
     axis -90 -7.62852e-016 -20   XYZ
    dof rx
    limits (-90.0 20.0)
  end
  begin
     id 11 
     name lowerback
     direction 0.0310826 0.968686 -0.246334   
     length 2.00021   
     axis 0 0 0   XYZ
    dof rx ry rz
    limits (-20.0 45.0)
           (-30.0 30.0)
           (-30.0 30.0)
  end
  begin
     id 12 
     name upperback
     direction -0.0152834 0.999474 -0.0286152   
     length 2.03728   
     axis 0 0 0   XYZ
    dof rx ry rz
    limits (-20.0 45.0)
           (-30.0 30.0)
           (-30.0 30.0)
  end
  begin
     id 13 
     name thorax
     direction -0.0323701 0.996236 0.0804149   
     length 2.16   
     axis 0 0 0   XYZ
    dof rx ry rz
    limits (-20.0 45.0)
           (-30.0 30.0)
           (-30.0 30.0)
  end
  begin
     id 14 
     name lowerneck
     direction 0.0307935 0.982251 0.185027   
     length 1.43558   
     axis 0 0 0   XYZ
    dof rx ry rz
    limits (-20.0 45.0)
           (-30.0 30.0)
           (-30.0 30.0)
  end
  begin
     id 15 
     name upperneck
     direction -0.0927153 0.994775 0.0427454   
     length 1.44603   
     axis 0 0 0   XYZ
    dof rx ry rz
    limits (-20.0 45.0)
           (-30.0 30.0)
           (-30.0 30.0)
  end
  begin
     id 16
     name head
     direction -0.0341265 0.999406 -0.00472033  
     length 1.45931  
     axis 0 0 0   XYZ
    dof rx ry rz
    limits (-20.0 45.0)
           (-30.0 30.0)
           (-30.0 30.0)
  end
  begin
     id 17 
     name lclavicle
     direction 0.820755 0.555306 -0.134151  
     length 2.66075  
     axis 0 0 0   XYZ
    dof ry rz
    limits (-20.0 10.0)
           (0.0 20.0)
  end
  begin
     id 18 
     name lhumerus
     direction 1 -4.48971e-011 5.24853e-027   
     length 5.0546   
     axis -180 -30 -90   XYZ
    dof rx ry rz
    limits (-60.0 90.0)
           (-90.0 90.0)
           (-90.0 90.0)
  end
  begin
     id 19
     name lradius
     direction 1 -4.48971e-011 2.76575e-028   
     length 3.39013   
     axis -180 -30 -90   XYZ
    dof rx
    limits (-10.0 170.0)
  end
  begin
     id 20
     name lwrist
     direction 1 -4.48939e-011 -2.27826e-027   
     length 1.69507   
     axis 2.17013e-015 90 90   XYZ
    dof ry
    limits (-180.0 0.0)
 end
  begin
     id 21 
     name lhand
     direction 1 -4.49009e-011 -4.55652e-027   
     length 0.572425   
     axis 2.90745e-015 90 90   XYZ
    dof rx rz
    limits (-90.0 90.0)
           (-45.0 45.0)
  end
  begin
     id 22 
     name lfingers
     direction 1 -4.48955e-011 -9.11303e-027   
     length 0.461504   
     axis 5.81489e-015 90 90   XYZ
    dof rx
    limits (0.0 90.0)
  end
  begin
     id 23
     name lthumb
     direction 0.707107 -6.34929e-011 0.707107   
     length 0.66263   
     axis -90 45 2.85299e-015   XYZ
    dof rx rz
    limits (-45.0 45.0)
           (-45.0 45.0)
  end
  begin
     id 24 
     name rclavicle
     direction -0.754477 0.632921 -0.173712   
     length 2.73081  
     axis 0 0 0   XYZ 
    dof ry rz
    limits (-10.0 20.0)
           (-20.0 0.0)
  end
  begin
     id 25 
     name rhumerus
     direction -1 -4.48969e-011 5.1496e-027  
     length 5.0701   
     axis -180 30 90   XYZ
    dof rx ry rz
    limits (-90.0 60.0)
           (-90.0 90.0)
           (-90.0 90.0)
  end
  begin
     id 26 
     name rradius
     direction -1 -4.48967e-011 -7.15624e-028   
     length 3.14957   
     axis -180 30 90   XYZ
    dof rx
    limits (-10.0 170.0)
  end
  begin
     id 27 
     name rwrist
     direction -1 -4.48938e-011 -2.27826e-027   
     length 1.57479   
     axis 2.17013e-015 -90 -90   XYZ
    dof ry
    limits (-180.0 0.0)
  end
  begin
     id 28
     name rhand
     direction -1 -4.49008e-011 -4.55652e-027   
     length 0.718191   
     axis 2.90745e-015 -90 -90   XYZ
    dof rx rz
    limits (-90.0 90.0)
           (-45.0 45.0)
  end
  begin
     id 29
     name rfingers
     direction -1 -4.48953e-011 -9.11303e-027   
     length 0.579024   
     axis 5.81489e-015 -90 -90   XYZ
    dof rx
    limits (0.0 90.0)
  end
  begin
     id 30
     name rthumb
     direction -0.707107 -6.34937e-011 0.707107   
     length 0.831366   
     axis -90 -45 -2.85299e-015   XYZ
    dof rx rz
    limits (-45.0 45.0)
           (-45.0 45.0)
  end
:hierarchy
  begin
    root lhipjoint rhipjoint lowerback
    lhipjoint lfemur
    lfemur ltibia
    ltibia lfoot
    lfoot ltoes
    rhipjoint rfemur
    rfemur rtibia
    rtibia rfoot
    rfoot rtoes
    lowerback upperback
    upperback thorax
    thorax lowerneck lclavicle rclavicle
    lowerneck upperneck
    upperneck head
    lclavicle lhumerus
    lhumerus lradius
    lradius lwrist
    lwrist lhand lthumb
    lhand lfingers
    rclavicle rhumerus
    rhumerus rradius
    rradius rwrist
    rwrist rhand rthumb
    rhand rfingers
  end

#!OML:ASF H:\Male1\Project 1\Capture day 1\Session 1\Male1.ASF
:FULLY-SPECIFIED
:DEGREES
103
root 21.4018 15.1585 -0.490359 144.043 -85.4869 -146.159
lowerback 6.48837 2.28485 0.252332
upperback 5.64043 2.87429 -1.87049
thorax 2.29885 1.39936 -2.19489
lowerneck 0.506199 3.20299 8.54724
upperneck -8.4566 4.14049 -4.67654
head -2.53569 1.89741 -3.13654
rclavicle -2.3059e-014 7.95139e-016
rhumerus -18.3048 20.7236 -95.21
rradius 63.1938
rwrist -45.7018
rhand -24.7844 -12.5818
rfingers 7.12502
rthumb 1.7198 -42.5546
lclavicle -2.3059e-014 7.95139e-016
lhumerus -26.1653 -33.8136 86.6208
lradius 50.9875
lwrist -0.0413582
lhand -18.7138 2.77326
lfingers 7.12502
lthumb 7.5814 32.6174
rfemur -8.97846 14.2458 24.0659
rtibia 32.1226
rfoot -34.8062 -32.1443
rtoes -13.9938
lfemur -10.6433 -14.4456 -14.8105
ltibia 36.0573
lfoot -27.0403 24.4945
ltoes -6.69672
104
root 21.3981 15.1586 -0.492572 142.295 -85.5582 -144.402
lowerback 6.5595 2.27779 0.344002
upperback 5.61577 2.8687 -1.91125
thorax 2.24067 1.4001 -2.29141
lowerneck 0.557846 3.06524 8.46111
upperneck -8.4592 3.97105 -4.48212
head -2.5629 1.81032 -3.05344
rclavicle -4.17448e-015 -1.98785e-014
rhumerus -18.1519 21.0944 -95.1825
rradius 63.9058
rwrist -45.4775
rhand -24.5203 -12.5251
rfingers 7.12502
rthumb 1.97482 -42.4957
lclavicle -4.17448e-015 -1.98785e-014
lhumerus -26.0581 -34.0419 86.2672
lradius 52.1124
lwrist -0.460842
lhand -19.1558 2.7867
lfingers 7.12502
lthumb 7.15479 32.6458
rfemur -8.9097 14.1888 24.1593
rtibia 32.0638
rfoot -34.9557 -32.1116
rtoes -13.8408
lfemur -10.7016 -14.4942 -14.7198
ltibia 36.1211
lfoot -26.9722 24.4068
ltoes -6.55401
105
root 21.3974 15.1592 -0.495945 141.394 -85.591 -143.493
lowerback 6.66814 2.29562 0.378085
upperback 5.58182 2.89283 -1.9617
thorax 2.15092 1.41354 -2.36881
lowerneck 0.557886 3.01527 8.37228
upperneck -8.55477 3.91501 -4.24057
head -2.60399 1.77493 -2.95565
rclavicle 1.11319e-014 -1.11319e-014
rhumerus -17.949 21.5231 -95.154
rradius 64.5379
rwrist -45.2399
rhand -24.5915 -12.217
rfingers 7.12502
rthumb 1.90609 -42.1882
lclavicle 1.11319e-014 -1.11319e-014
lhumerus -25.8902 -34.2948 85.8874
lradius 53.1575
lwrist -0.839379
lhand -19.8328 2.24413
lfingers 7.12502
lthumb 6.50126 32.1243
rfemur -8.89858 14.1168 24.2066
rtibia 32.0541
rfoot -35.0467 -32.017
rtoes -13.6326
lfemur -10.7392 -14.4798 -14.6605
ltibia 36.1456
lfoot -26.883 24.2969
ltoes -6.45822
106
root 21.3969 15.1599 -0.499172 141.626 -85.6387 -143.732
lowerback 6.74202 2.29998 0.250354
upperback 5.57953 2.89068 -1.97457
thorax 2.1015 1.40782 -2.31374
lowerneck 0.571892 3.02928 8.29145
upperneck -8.6485 3.93634 -4.15299
head -2.63901 1.78291 -2.91358
rclavicle -8.74653e-015 3.18055e-015
rhumerus -17.7451 22.2389 -95.1063
rradius 65.143
rwrist -44.8722
rhand -25.0306 -11.9428
rfingers 7.12502
rthumb 1.48204 -41.9174
lclavicle -8.74653e-015 3.18055e-015
lhumerus -25.6701 -34.3744 85.5142
lradius 54.1653
lwrist -1.19781
lhand -20.0714 2.10748
lfingers 7.12502
lthumb 6.27087 31.9947
rfemur -8.90762 14.0119 24.1594
rtibia 32.0856
rfoot -35.0482 -31.9239
rtoes -13.4877
lfemur -10.7507 -14.46 -14.6944
ltibia 36.1411
lfoot -26.7886 24.3693
ltoes -7.05982
107
root 21.3941 15.1605 -0.501035 142.858 -85.7733 -144.92
lowerback 6.67499 2.2866 -0.000306026
upperback 5.59789 2.86148 -1.9989
thorax 2.14467 1.38549 -2.19426
lowerneck 0.658766 3.02639 8.12632
upperneck -8.77093 3.94246 -4.0138
head -2.70016 1.78448 -2.84103
rclavicle 4.7112e-014 -3.73715e-014
rhumerus -17.5193 22.9965 -95.0411
rradius 65.7121
rwrist -44.3213
rhand -25.4299 -12.0658
rfingers 7.12502
rthumb 1.09637 -42.0427
lclavicle 4.7112e-014 -3.73715e-014
lhumerus -25.4247 -34.337 85.1302
lradius 55.1711
lwrist -1.52105
lhand -20.3972 2.17823
lfingers 7.12502
lthumb 5.95639 32.0745
rfemur -8.97458 13.8544 23.9697
rtibia 32.1366
rfoot -34.9355 -31.888
rtoes -13.7089
lfemur -10.7907 -14.4927 -14.8493
ltibia 36.1209
lfoot -26.8002 24.4788
ltoes -7.50808
108
root 21.3904 15.1602 -0.503166 142.603 -85.7895 -144.593
lowerback 6.55077 2.32343 0.0068367
upperback 5.62672 2.91289 -2.04809
thorax 2.2487 1.4127 -2.24548
lowerneck 0.686972 2.9018 7.92813
upperneck -8.77873 3.789 -3.76394
head -2.72434 1.70664 -2.71815
rclavicle -3.79679e-014 7.95139e-015
rhumerus -17.2268 23.3942 -94.959
rradius 66.2966
rwrist -43.8984
rhand -25.5152 -12.4232
rfingers 7.12502
rthumb 1.01402 -42.4006
lclavicle -3.79679e-014 7.95139e-015
lhumerus -25.0697 -34.4756 84.6479
lradius 56.1995
lwrist -1.74756
lhand -20.8937 1.69794
lfingers 7.12502
lthumb 5.47701 31.6072
rfemur -9.07018 13.7645 23.9604
rtibia 32.1937
rfoot -34.8411 -31.8862
rtoes -13.9382
lfemur -10.829 -14.5108 -14.8163
ltibia 36.0905
lfoot -26.8364 24.4527
ltoes -7.32019
109
root 21.3861 15.1616 -0.506202 141.869 -85.8555 -143.75
lowerback 6.42149 2.3577 0.0282739
upperback 5.64348 2.96225 -2.11113
thorax 2.34464 1.43983 -2.31873
lowerneck 0.552957 2.92058 7.99536
upperneck -8.83396 3.80495 -3.72413
head -2.71697 1.70786 -2.71468
rclavicle 1.72943e-014 -1.90833e-014
rhumerus -16.8978 23.6041 -94.8555
rradius 66.8859
rwrist -43.6965
rhand -25.4633 -12.5115
rfingers 7.12502
rthumb 1.06409 -42.4886
lclavicle 1.72943e-014 -1.90833e-014
lhumerus -24.7026 -34.6502 84.1242
lradius 57.2878
lwrist -2.01609
lhand -21.3588 1.06637
lfingers 7.12502
lthumb 5.02795 30.9867
rfemur -9.20268 13.725 23.9528
rtibia 32.2469
rfoot -34.948 -31.8458
rtoes -13.235
lfemur -10.938 -14.5349 -14.7631
ltibia 36.0576
lfoot -26.7213 24.4879
ltoes -7.52446
110
root 21.3808 15.1648 -0.508277 141.613 -86.1238 -143.379
lowerback 6.33658 2.31606 -0.136648
upperback 5.62141 2.90265 -2.17399
thorax 2.36101 1.40618 -2.28596
lowerneck 0.656265 2.81827 7.94267
upperneck -8.92228 3.68246 -3.60262
head -2.7765 1.64313 -2.66695
rclavicle 2.92213e-014 -1.11319e-014
rhumerus -16.7078 23.8643 -94.7829
rradius 67.5441
rwrist -43.5177
rhand -25.338 -12.2399
rfingers 7.12502
rthumb 1.18514 -42.2164
lclavicle 2.92213e-014 -1.11319e-014
lhumerus -24.4711 -34.6025 83.6745
lradius 58.3866
lwrist -2.56795
lhand -21.9555 0.727292
lfingers 7.12502
lthumb 4.45173 30.6605
rfemur -9.32779 13.6405 23.7756
rtibia 32.3044
rfoot -35.2056 -31.8176
rtoes -12.307
lfemur -11.0949 -14.6235 -14.8752
ltibia 36.0177
lfoot -26.571 24.443
ltoes -7.6678
111
root 21.3773 15.1657 -0.508878 140.826 -86.3331 -142.571
lowerback 6.38012 2.29012 -0.198951
upperback 5.58911 2.86524 -2.23098
thorax 2.30166 1.38637 -2.31093
lowerneck 0.984497 2.75253 8.08179
upperneck -9.27473 3.61381 -3.7261
head -2.95962 1.60153 -2.75148
rclavicle -1.35174e-014 3.18055e-014
rhumerus -16.6402 24.0779 -94.7566
rradius 68.2244
rwrist -43.2509
rhand -25.2371 -11.996
rfingers 7.12502
rthumb 1.28253 -41.9719
lclavicle -1.35174e-014 3.18055e-014
lhumerus -24.2962 -34.5522 83.2788
lradius 59.4757
lwrist -3.26357
lhand -22.5637 0.48554
lfingers 7.12502
lthumb 3.86441 30.4302
rfemur -9.34367 13.5523 23.6818
rtibia 32.3645
rfoot -35.4006 -31.8134
rtoes -12.5833
lfemur -11.1448 -14.7268 -14.9576
ltibia 35.9776
lfoot -26.4579 24.2772
ltoes -7.36181
112
root 21.3746 15.1659 -0.509092 141.524 -86.5306 -143.269
lowerback 6.38277 2.29555 -0.30344
upperback 5.61091 2.86676 -2.32364
thorax 2.3228 1.38458 -2.348
lowerneck 1.23247 2.69566 8.26014
upperneck -9.64066 3.54883 -3.87217
head -3.13314 1.55966 -2.8497
rclavicle -2.32578e-014 -8.74653e-015
rhumerus -16.4175 24.2803 -94.7005
rradius 68.793
rwrist -42.9914
rhand -25.2484 -11.8911
rfingers 7.12502
rthumb 1.27164 -41.8671
lclavicle -2.32578e-014 -8.74653e-015
lhumerus -24.0066 -34.4133 82.7745
lradius 60.6781
lwrist -3.71189
lhand -22.8907 -0.0663002
lfingers 7.12502
lthumb 3.54869 29.8839
rfemur -9.34667 13.4259 23.5048
rtibia 32.4238
rfoot -35.5316 -31.6941
rtoes -12.9351
lfemur -11.1576 -14.8068 -15.1354
ltibia 35.9448
lfoot -26.3738 24.2587
ltoes -7.41753
113
root 21.3715 15.1661 -0.509721 141.66 -86.63 -143.391
lowerback 6.32075 2.27488 -0.363082
upperback 5.69317 2.83621 -2.36123
thorax 2.44074 1.3671 -2.34828
lowerneck 1.19508 2.7686 8.32362
upperneck -9.83059 3.63145 -3.99142
head -3.18368 1.5965 -2.90791
rclavicle -1.63003e-014 0
rhumerus -16.0273 24.4994 -94.5988
rradius 69.3328
rwrist -42.7315
rhand -25.0193 -12.0264
rfingers 7.12502
rthumb 1.4929 -42.0009
lclavicle -1.63003e-014 0
lhumerus -23.6323 -33.9349 82.1855
lradius 62.0349
lwrist -3.95746
lhand -22.8462 -0.586829
lfingers 7.12502
lthumb 3.5916 29.3627
rfemur -9.37291 13.2843 23.4152
rtibia 32.4844
rfoot -35.6206 -31.534
rtoes -12.7475
lfemur -11.175 -14.8048 -15.2072
ltibia 35.9257
lfoot -26.2671 24.2994
ltoes -7.76806
114
root 21.3694 15.1653 -0.510346 139.797 -86.6343 -141.527
lowerback 6.33817 2.24343 -0.280492
upperback 5.73984 2.79647 -2.35001
thorax 2.48172 1.34936 -2.38122
lowerneck 1.20922 2.76261 8.20902
upperneck -9.91252 3.62038 -3.96185
head -3.21685 1.5919 -2.87873
rclavicle 1.64991e-014 -3.18055e-015
rhumerus -15.7072 24.5549 -94.5598
rradius 69.8814
rwrist -42.4348
rhand -24.7496 -12.0001
rfingers 7.12502
rthumb 1.75343 -41.9726
lclavicle 1.64991e-014 -3.18055e-015
lhumerus -23.3821 -33.4588 81.697
lradius 63.4318
lwrist -4.53682
lhand -22.7297 -0.199836
lfingers 7.12502
lthumb 3.70412 29.7477
rfemur -9.39598 13.1129 23.4926
rtibia 32.5428
rfoot -35.5267 -31.5047
rtoes -12.9019
lfemur -11.1911 -14.7703 -15.1037
ltibia 35.9182
lfoot -26.128 24.2478
ltoes -7.93221
115
root 21.3672 15.1657 -0.511111 139.19 -86.7656 -140.892
lowerback 6.37815 2.21499 -0.327426
upperback 5.73571 2.75547 -2.39225
thorax 2.4535 1.32763 -2.39873
lowerneck 1.29865 2.81682 8.31048
upperneck -10.1729 3.6881 -4.1031
head -3.3166 1.62008 -2.95724
rclavicle -2.40529e-014 2.70347e-014
rhumerus -15.4131 24.4908 -94.587
rradius 70.3981
rwrist -42.1493
rhand -24.8231 -11.5776
rfingers 7.12502
rthumb 1.68245 -41.5508
lclavicle -2.40529e-014 2.70347e-014
lhumerus -23.2514 -33.0703 81.2672
lradius 64.9175
lwrist -5.53274
lhand -24.1926 1.05667
lfingers 7.12502
lthumb 2.29138 31.0241
rfemur -9.44509 12.8421 23.4035
rtibia 32.5846
rfoot -35.3609 -31.4964
rtoes -13.1537
lfemur -11.2461 -14.8022 -15.1516
ltibia 35.9229
lfoot -26.0517 24.2413
ltoes -8.14955
116
root 21.3648 15.1673 -0.513448 138.725 -86.844 -140.38
lowerback 6.36968 2.17856 -0.422957
upperback 5.77885 2.70192 -2.38906
thorax 2.49614 1.29688 -2.33887
lowerneck 1.37445 2.82701 8.16535
upperneck -10.4251 3.70109 -4.04357
head -3.42012 1.62292 -2.91891
rclavicle -1.51076e-014 7.15625e-015
rhumerus -14.9483 24.5261 -94.5593
rradius 70.9284
rwrist -41.8319
rhand -24.9394 -11.2246
rfingers 7.12502
rthumb 1.57005 -41.1985
lclavicle -1.51076e-014 7.15625e-015
lhumerus -23.0665 -32.5094 80.8123
lradius 66.5594
lwrist -6.75792
lhand -26.6466 3.45401
lfingers 7.12502
lthumb -0.0787513 33.4337
rfemur -9.5148 12.6829 23.3542
rtibia 32.6203
rfoot -35.2973 -31.5251
rtoes -13.3426
lfemur -11.3072 -14.8622 -15.1668
ltibia 35.9311
lfoot -25.9879 24.3037
ltoes -8.48756
